# xmcd CD Database Entry
#
# Track frame offsets:
# 150
# 13310
# 30092
# 41773
# 53532
# 70370
# 85627
# 101976
# 121125
# 138541
# 157418
# 170864
# 194156
# 205291
# 224875
#
# Disc length: 3244 seconds
#
# Revision: 1
# Processed by: cddbd v1.4PL0 Copyright (c) Steve Scherf et al.
# Submitted via: tcd 2.0b
#
DISCID=eb0caa0f
DTITLE=Mose Scarlett - Precious Seconds
DYEAR=1900
DGENRE=
TTITLE0=Somebody Stole My Gal
TTITLE1=Sweet Lorraine
TTITLE2=Muscatel Tale
TTITLE3=Darktown Strutters Ball
TTITLE4=Don't Go Lookin' for Trouble
TTITLE5=I Used to Love You But It's All Over
TTITLE6=Bye, Bye Blues
TTITLE7=She's Funny That Way
TTITLE8=Good Liquor Gonna Carry Me Down
TTITLE9=All of Me
TTITLE10=Anytime
TTITLE11=I Can't Get Started
TTITLE12=Lulu's Back in Town
TTITLE13=He's in the Jailhouse Now
TTITLE14=My Blue Heaven
EXTD=
EXTT0=
EXTT1=
EXTT2=
EXTT3=
EXTT4=
EXTT5=
EXTT6=
EXTT7=
EXTT8=
EXTT9=
EXTT10=
EXTT11=
EXTT12=
EXTT13=
EXTT14=
PLAYORDER=
